<mxfile host="app.diagrams.net" modified="2023-06-24T21:32:47.988Z" agent="Mozilla/5.0 (Windows NT 10.0; Win64; x64) AppleWebKit/537.36 (KHTML, like Gecko) Chrome/114.0.0.0 Safari/537.36" etag="rtJBwTx_IdjWpQeM2Z06" version="21.5.0" type="github">
  <diagram name="Page-1" id="TUy8K6pfmEFAF48vpJAz">
    <mxGraphModel dx="1656" dy="756" grid="1" gridSize="10" guides="1" tooltips="1" connect="1" arrows="1" fold="1" page="1" pageScale="1" pageWidth="850" pageHeight="1100" math="0" shadow="0">
      <root>
        <mxCell id="0" />
        <mxCell id="1" parent="0" />
        <mxCell id="RaNxFDY0SVr_BFBC2Orm-10" style="edgeStyle=orthogonalEdgeStyle;rounded=0;orthogonalLoop=1;jettySize=auto;html=1;exitX=1;exitY=0.5;exitDx=0;exitDy=0;exitPerimeter=0;" edge="1" parent="1" source="RaNxFDY0SVr_BFBC2Orm-1" target="RaNxFDY0SVr_BFBC2Orm-2">
          <mxGeometry relative="1" as="geometry" />
        </mxCell>
        <mxCell id="RaNxFDY0SVr_BFBC2Orm-16" value="http, port 80" style="edgeLabel;html=1;align=center;verticalAlign=middle;resizable=0;points=[];" vertex="1" connectable="0" parent="RaNxFDY0SVr_BFBC2Orm-10">
          <mxGeometry x="-0.2129" y="2" relative="1" as="geometry">
            <mxPoint y="1" as="offset" />
          </mxGeometry>
        </mxCell>
        <mxCell id="RaNxFDY0SVr_BFBC2Orm-1" value="&lt;b&gt;&lt;font color=&quot;#cc6600&quot;&gt;Order UI ( java client)&lt;/font&gt;&lt;/b&gt;" style="fontColor=#0066CC;verticalAlign=top;verticalLabelPosition=bottom;labelPosition=center;align=center;html=1;outlineConnect=0;fillColor=#CCCCCC;strokeColor=#6881B3;gradientColor=none;gradientDirection=north;strokeWidth=2;shape=mxgraph.networks.pc;" vertex="1" parent="1">
          <mxGeometry x="140" y="172.5" width="100" height="70" as="geometry" />
        </mxCell>
        <mxCell id="RaNxFDY0SVr_BFBC2Orm-11" value="" style="edgeStyle=orthogonalEdgeStyle;rounded=0;orthogonalLoop=1;jettySize=auto;html=1;entryX=0.474;entryY=-0.02;entryDx=0;entryDy=0;entryPerimeter=0;" edge="1" parent="1" source="RaNxFDY0SVr_BFBC2Orm-2" target="RaNxFDY0SVr_BFBC2Orm-7">
          <mxGeometry relative="1" as="geometry" />
        </mxCell>
        <mxCell id="RaNxFDY0SVr_BFBC2Orm-17" value="&lt;font style=&quot;font-size: 14px;&quot;&gt;mysql&lt;/font&gt;" style="edgeLabel;html=1;align=center;verticalAlign=middle;resizable=0;points=[];" vertex="1" connectable="0" parent="RaNxFDY0SVr_BFBC2Orm-11">
          <mxGeometry x="0.2571" y="-3" relative="1" as="geometry">
            <mxPoint as="offset" />
          </mxGeometry>
        </mxCell>
        <mxCell id="RaNxFDY0SVr_BFBC2Orm-13" value="&lt;font style=&quot;font-size: 14px;&quot;&gt;&lt;b&gt;File I/O&lt;/b&gt;&lt;/font&gt;" style="edgeStyle=orthogonalEdgeStyle;rounded=0;orthogonalLoop=1;jettySize=auto;html=1;exitX=0.88;exitY=0.5;exitDx=0;exitDy=0;exitPerimeter=0;entryX=0;entryY=0.5;entryDx=0;entryDy=0;entryPerimeter=0;" edge="1" parent="1" source="RaNxFDY0SVr_BFBC2Orm-2" target="RaNxFDY0SVr_BFBC2Orm-3">
          <mxGeometry relative="1" as="geometry" />
        </mxCell>
        <mxCell id="RaNxFDY0SVr_BFBC2Orm-2" value="&lt;b&gt;WebServer&lt;/b&gt;" style="fontColor=#0066CC;verticalAlign=top;verticalLabelPosition=bottom;labelPosition=center;align=center;html=1;outlineConnect=0;fillColor=#CCCCCC;strokeColor=#6881B3;gradientColor=none;gradientDirection=north;strokeWidth=2;shape=mxgraph.networks.web_server;" vertex="1" parent="1">
          <mxGeometry x="510" y="170" width="105" height="75" as="geometry" />
        </mxCell>
        <mxCell id="RaNxFDY0SVr_BFBC2Orm-3" value="&lt;font color=&quot;#cc6600&quot;&gt;ws_logs&lt;/font&gt;" style="fontColor=#0066CC;verticalAlign=top;verticalLabelPosition=bottom;labelPosition=center;align=center;html=1;outlineConnect=0;fillColor=#CCCCCC;strokeColor=#6881B3;gradientColor=none;gradientDirection=north;strokeWidth=2;shape=mxgraph.networks.storage;" vertex="1" parent="1">
          <mxGeometry x="680" y="192.5" width="100" height="30" as="geometry" />
        </mxCell>
        <mxCell id="RaNxFDY0SVr_BFBC2Orm-4" value="&lt;font color=&quot;#cc6600&quot;&gt;ws_db&lt;/font&gt;" style="fontColor=#0066CC;verticalAlign=top;verticalLabelPosition=bottom;labelPosition=center;align=center;html=1;outlineConnect=0;fillColor=#CCCCCC;strokeColor=#6881B3;gradientColor=none;gradientDirection=north;strokeWidth=2;shape=mxgraph.networks.storage;" vertex="1" parent="1">
          <mxGeometry x="520" y="461" width="100" height="30" as="geometry" />
        </mxCell>
        <mxCell id="RaNxFDY0SVr_BFBC2Orm-5" value="" style="image;sketch=0;aspect=fixed;html=1;points=[];align=center;fontSize=12;image=img/lib/mscae/Docker.svg;" vertex="1" parent="1">
          <mxGeometry x="480" y="222.5" width="50" height="41" as="geometry" />
        </mxCell>
        <mxCell id="RaNxFDY0SVr_BFBC2Orm-7" value="&lt;font color=&quot;#cc6600&quot;&gt;ws_orderinfo&lt;/font&gt;" style="image;sketch=0;aspect=fixed;html=1;points=[];align=center;fontSize=12;image=img/lib/mscae/SQL_Database_generic.svg;" vertex="1" parent="1">
          <mxGeometry x="545" y="333" width="38" height="50" as="geometry" />
        </mxCell>
        <mxCell id="RaNxFDY0SVr_BFBC2Orm-12" value="I/O" style="edgeStyle=orthogonalEdgeStyle;rounded=0;orthogonalLoop=1;jettySize=auto;html=1;exitX=0.658;exitY=1.08;exitDx=0;exitDy=0;exitPerimeter=0;" edge="1" parent="1" source="RaNxFDY0SVr_BFBC2Orm-7" target="RaNxFDY0SVr_BFBC2Orm-4">
          <mxGeometry relative="1" as="geometry" />
        </mxCell>
        <mxCell id="RaNxFDY0SVr_BFBC2Orm-8" value="" style="image;sketch=0;aspect=fixed;html=1;points=[];align=center;fontSize=12;image=img/lib/mscae/Docker.svg;" vertex="1" parent="1">
          <mxGeometry x="570" y="342" width="50" height="41" as="geometry" />
        </mxCell>
        <mxCell id="RaNxFDY0SVr_BFBC2Orm-18" value="&lt;b&gt;LEGENDS&lt;/b&gt;" style="rounded=1;whiteSpace=wrap;html=1;align=left;" vertex="1" parent="1">
          <mxGeometry x="70" y="573" width="690" height="60" as="geometry" />
        </mxCell>
        <mxCell id="RaNxFDY0SVr_BFBC2Orm-19" value="&lt;b&gt;&lt;font color=&quot;#cc6600&quot;&gt;User machine&lt;br&gt;&lt;br&gt;&lt;/font&gt;&lt;/b&gt;" style="fontColor=#0066CC;verticalAlign=top;verticalLabelPosition=bottom;labelPosition=center;align=center;html=1;outlineConnect=0;fillColor=#CCCCCC;strokeColor=#6881B3;gradientColor=none;gradientDirection=north;strokeWidth=2;shape=mxgraph.networks.pc;" vertex="1" parent="1">
          <mxGeometry x="170" y="583" width="30" height="20" as="geometry" />
        </mxCell>
        <mxCell id="RaNxFDY0SVr_BFBC2Orm-20" value="&lt;b&gt;Server machine&lt;br&gt;&lt;/b&gt;" style="fontColor=#0066CC;verticalAlign=top;verticalLabelPosition=bottom;labelPosition=center;align=center;html=1;outlineConnect=0;fillColor=#CCCCCC;strokeColor=#6881B3;gradientColor=none;gradientDirection=north;strokeWidth=2;shape=mxgraph.networks.web_server;" vertex="1" parent="1">
          <mxGeometry x="260" y="578" width="50" height="30" as="geometry" />
        </mxCell>
        <mxCell id="RaNxFDY0SVr_BFBC2Orm-23" value="&lt;font color=&quot;#cc6600&quot;&gt;docker volumes&lt;/font&gt;" style="fontColor=#0066CC;verticalAlign=top;verticalLabelPosition=bottom;labelPosition=center;align=center;html=1;outlineConnect=0;fillColor=#CCCCCC;strokeColor=#6881B3;gradientColor=none;gradientDirection=north;strokeWidth=2;shape=mxgraph.networks.storage;" vertex="1" parent="1">
          <mxGeometry x="360" y="588" width="40" height="15" as="geometry" />
        </mxCell>
        <mxCell id="RaNxFDY0SVr_BFBC2Orm-24" value="" style="image;sketch=0;aspect=fixed;html=1;points=[];align=center;fontSize=12;image=img/lib/mscae/Docker.svg;" vertex="1" parent="1">
          <mxGeometry x="440" y="582.5" width="50" height="41" as="geometry" />
        </mxCell>
        <mxCell id="RaNxFDY0SVr_BFBC2Orm-25" value="&lt;font color=&quot;#cc6600&quot;&gt;database&lt;br&gt;&lt;/font&gt;" style="image;sketch=0;aspect=fixed;html=1;points=[];align=center;fontSize=12;image=img/lib/mscae/SQL_Database_generic.svg;" vertex="1" parent="1">
          <mxGeometry x="520" y="583" width="20" height="26.32" as="geometry" />
        </mxCell>
        <mxCell id="RaNxFDY0SVr_BFBC2Orm-26" style="edgeStyle=orthogonalEdgeStyle;rounded=0;orthogonalLoop=1;jettySize=auto;html=1;exitX=1;exitY=0.5;exitDx=0;exitDy=0;exitPerimeter=0;" edge="1" parent="1">
          <mxGeometry relative="1" as="geometry">
            <mxPoint x="560" y="595.25" as="sourcePoint" />
            <mxPoint x="650" y="595.75" as="targetPoint" />
            <Array as="points">
              <mxPoint x="645" y="595.75" />
              <mxPoint x="645" y="596.75" />
            </Array>
          </mxGeometry>
        </mxCell>
        <mxCell id="RaNxFDY0SVr_BFBC2Orm-27" value="communication&amp;nbsp;&lt;br&gt;protocol" style="edgeLabel;html=1;align=center;verticalAlign=middle;resizable=0;points=[];" vertex="1" connectable="0" parent="RaNxFDY0SVr_BFBC2Orm-26">
          <mxGeometry x="-0.2129" y="2" relative="1" as="geometry">
            <mxPoint x="15" y="20" as="offset" />
          </mxGeometry>
        </mxCell>
      </root>
    </mxGraphModel>
  </diagram>
</mxfile>
